<svg width="54" height="54" viewBox="0 0 54 54" fill="none" xmlns="http://www.w3.org/2000/svg">
<path fill-rule="evenodd" clip-rule="evenodd" d="M7.73094 11.6641C6.75 13.5893 6.75 16.1095 6.75 21.15V32.85C6.75 37.8905 6.75 40.4107 7.73094 42.3359C8.5938 44.0294 9.97063 45.4062 11.6641 46.2691C13.5893 47.25 16.1095 47.25 21.15 47.25H32.85C37.8905 47.25 40.4107 47.25 42.3359 46.2691C44.0294 45.4062 45.4062 44.0294 46.2691 42.3359C47.25 40.4107 47.25 37.8905 47.25 32.85V21.15C47.25 16.1095 47.25 13.5893 46.2691 11.6641C45.4062 9.97063 44.0294 8.5938 42.3359 7.73094C40.4107 6.75 37.8905 6.75 32.85 6.75H21.15C16.1095 6.75 13.5893 6.75 11.6641 7.73094C9.97063 8.5938 8.5938 9.97063 7.73094 11.6641ZM26.341 18.659C25.4623 17.7803 24.0377 17.7803 23.159 18.659C22.2803 19.5377 22.2803 20.9623 23.159 21.841L28.318 27L23.159 32.159C22.2803 33.0377 22.2803 34.4623 23.159 35.341C24.0377 36.2197 25.4623 36.2197 26.341 35.341L33.091 28.591C33.9697 27.7123 33.9697 26.2877 33.091 25.409L26.341 18.659Z" fill="#12131A"/>
</svg>
