<svg width="54" height="54" viewBox="0 0 54 54" fill="none" xmlns="http://www.w3.org/2000/svg">
<path fill-rule="evenodd" clip-rule="evenodd" d="M46.2691 11.6641C47.25 13.5893 47.25 16.1095 47.25 21.15V32.85C47.25 37.8905 47.25 40.4107 46.2691 42.3359C45.4062 44.0294 44.0294 45.4062 42.3359 46.2691C40.4107 47.25 37.8905 47.25 32.85 47.25H21.15C16.1095 47.25 13.5893 47.25 11.6641 46.2691C9.97063 45.4062 8.5938 44.0294 7.73094 42.3359C6.75 40.4107 6.75 37.8905 6.75 32.85V21.15C6.75 16.1095 6.75 13.5893 7.73094 11.6641C8.5938 9.97063 9.97063 8.5938 11.6641 7.73094C13.5893 6.75 16.1095 6.75 21.15 6.75H32.85C37.8905 6.75 40.4107 6.75 42.3359 7.73094C44.0294 8.5938 45.4062 9.97063 46.2691 11.6641ZM27.659 18.659C28.5377 17.7803 29.9623 17.7803 30.841 18.659C31.7197 19.5377 31.7197 20.9623 30.841 21.841L25.682 27L30.841 32.159C31.7197 33.0377 31.7197 34.4623 30.841 35.341C29.9623 36.2197 28.5377 36.2197 27.659 35.341L20.909 28.591C20.0303 27.7123 20.0303 26.2877 20.909 25.409L27.659 18.659Z" fill="#12131A"/>
</svg>
