<svg width="12" height="12" viewBox="0 0 12 12" fill="none" xmlns="http://www.w3.org/2000/svg">
<path d="M9.79496 3.19502C10.0683 2.92165 10.0683 2.47841 9.79496 2.20503C9.52158 1.93166 9.07835 1.93166 8.80497 2.20503L6 5.01L3.19503 2.20503C2.92165 1.93166 2.47842 1.93166 2.20504 2.20503C1.93166 2.47841 1.93166 2.92165 2.20504 3.19503L5.01001 6L2.20503 8.80497C1.93166 9.07835 1.93166 9.52159 2.20503 9.79496C2.47841 10.0683 2.92165 10.0683 3.19502 9.79496L6 6.98999L8.80498 9.79497C9.07835 10.0683 9.52159 10.0683 9.79497 9.79497C10.0683 9.52159 10.0683 9.07835 9.79497 8.80497L6.98999 6L9.79496 3.19502Z" fill="#FE6A4A"/>
</svg>
