<svg width="24" height="24" viewBox="0 0 24 24" fill="none" xmlns="http://www.w3.org/2000/svg">
<path d="M2 5C2 3.34315 3.34315 2 5 2H13C14.6569 2 16 3.34315 16 5V8H14V5C14 4.44772 13.5523 4 13 4H5C4.82796 4 4.66606 4.04345 4.52469 4.11997L8.19595 5.71581C9.2914 6.19198 10 7.27265 10 8.46712V20H13C13.5523 20 14 19.5523 14 19V16H16V19C16 20.6569 14.6569 22 13 22H5C3.34315 22 2 20.6569 2 19V5Z" fill="#FE6A4A"/>
<path d="M18.1679 14.4453C17.8616 14.9048 17.9858 15.5257 18.4453 15.8321C18.9048 16.1384 19.5257 16.0142 19.8321 15.5547L22.2019 12L19.8321 8.4453C19.5257 7.98577 18.9048 7.8616 18.4453 8.16795C17.9858 8.4743 17.8616 9.09517 18.1679 9.5547L19.1315 11L12 11V13L19.1315 13L18.1679 14.4453Z" fill="#FE6A4A"/>
</svg>
