<svg width="14" height="14" viewBox="0 0 14 14" fill="none" xmlns="http://www.w3.org/2000/svg">
<path fill-rule="evenodd" clip-rule="evenodd" d="M12.6878 12.6882C12.8814 12.4945 12.8814 12.1806 12.6878 11.987L2.01278 1.31197C1.81915 1.11834 1.5052 1.11834 1.31157 1.31197C1.11793 1.50561 1.11793 1.81955 1.31157 2.01319L3.06489 3.7665C1.93705 4.49185 1.10861 5.56638 0.583008 7.00005C1.66921 9.96232 4.33893 11.3297 6.99953 11.375C8.02985 11.3926 9.07286 11.1745 10.025 10.7266L11.9866 12.6882C12.1802 12.8818 12.4942 12.8818 12.6878 12.6882ZM8.68154 9.38314L7.83599 8.53758C7.5875 8.67306 7.30253 8.75005 6.99953 8.75005C6.0331 8.75005 5.24953 7.96655 5.24953 7.00005C5.24953 6.69708 5.32652 6.4121 5.462 6.1636L4.61644 5.31805C4.28035 5.79335 4.08287 6.37364 4.08287 7.00005C4.08287 8.61087 5.38881 9.91671 6.99953 9.91671C7.62597 9.91671 8.20624 9.71924 8.68154 9.38314Z" fill="#424242"/>
<path d="M11.669 9.62772C12.414 8.94654 13.0244 8.06905 13.4163 7.00005C12.3363 4.05465 9.6224 2.62505 6.99953 2.62505C6.32035 2.62505 5.62779 2.72089 4.95544 2.91411L6.22778 4.18656C6.47359 4.1193 6.73236 4.08338 6.99953 4.08338C8.61039 4.08338 9.9162 5.38922 9.9162 7.00005C9.9162 7.26718 9.88031 7.52591 9.81309 7.77172L11.669 9.62772Z" fill="#424242"/>
</svg>
