<svg width="14" height="14" viewBox="0 0 14 14" fill="none" xmlns="http://www.w3.org/2000/svg">
<path d="M6.99967 8.75C7.96617 8.75 8.74967 7.9665 8.74967 7C8.74967 6.0335 7.96617 5.25 6.99967 5.25C6.03317 5.25 5.24967 6.0335 5.24967 7C5.24967 7.9665 6.03317 8.75 6.99967 8.75Z" fill="#424242"/>
<path fill-rule="evenodd" clip-rule="evenodd" d="M0.583008 7C1.74967 4.08333 4.37682 2.625 6.99967 2.625C9.62252 2.625 12.2497 4.08333 13.4163 7C12.2497 9.91667 9.63005 11.4199 6.99967 11.375C4.33896 11.3296 1.74967 9.91667 0.583008 7ZM9.91634 7C9.91634 8.61083 8.6105 9.91667 6.99967 9.91667C5.38884 9.91667 4.08301 8.61083 4.08301 7C4.08301 5.38917 5.38884 4.08333 6.99967 4.08333C8.6105 4.08333 9.91634 5.38917 9.91634 7Z" fill="#424242"/>
</svg>
