<svg width="231" height="42" viewBox="0 0 231 42" fill="none" xmlns="http://www.w3.org/2000/svg">
<path d="M37.8206 5.26149C37.8206 3.86952 37.8195 2.58347 37.8217 1.29641C37.8217 1.11283 37.8206 0.92623 37.8454 0.744669C37.9073 0.295812 38.2338 0.0567572 38.7043 0.0164105C39.1602 -0.0229276 39.4878 0.186876 39.6623 0.575213C39.7636 0.800146 39.749 1.03517 39.749 1.26918C39.749 8.49326 39.7445 15.7173 39.7569 22.9424C39.758 23.469 39.5779 23.8704 39.1557 24.2325C38.3441 24.9275 37.5673 25.6537 36.768 26.3598C36.132 26.9226 35.6727 26.9216 35.0333 26.3729C34.1203 25.5902 33.795 25.5942 32.9023 26.3941C31.2091 27.9111 29.5149 29.4272 27.8229 30.9462C27.0777 31.615 27.0811 31.9519 27.8285 32.6337C28.5873 33.3257 28.5884 33.6827 27.8364 34.3666C27.7182 34.4735 27.5944 34.5784 27.4953 34.6985C27.1959 35.0616 27.215 35.4994 27.5505 35.7949C27.9197 36.1207 28.343 36.156 28.7674 35.8978C28.9813 35.7677 29.1569 35.5871 29.3494 35.4287C29.9022 34.9728 30.3727 34.9668 30.9266 35.4126C31.0234 35.4913 31.1123 35.578 31.2069 35.6597C31.8441 36.2105 32.3056 36.2125 32.9383 35.6476C34.7271 34.0509 36.5125 32.4501 38.2957 30.8474C38.9351 30.2724 38.9306 29.8801 38.3013 29.2991C37.421 28.4861 37.4244 28.1976 38.3249 27.3907C39.2503 26.5605 40.1667 25.7213 41.1078 24.9053C41.4995 24.5654 41.6639 24.1881 41.6616 23.6999C41.6493 20.096 41.6549 16.492 41.6549 12.889C41.6549 12.5693 41.6436 12.2516 41.9251 11.9974C42.4362 11.5344 43.2253 11.7039 43.554 12.3686C44.3668 14.0137 44.9409 15.7284 45.2302 17.5067C45.8877 21.5495 45.371 25.4752 43.3975 29.17C39.8638 35.7868 34.0077 39.7307 25.9452 41.0047C24.1001 41.2962 22.2269 41.3123 20.3536 41.156C19.9754 41.1247 20.0058 40.9482 20.0058 40.7253C20.008 38.5627 20.0069 36.4011 20.0069 34.2385C20.0069 32.7467 20.026 31.2549 19.9945 29.7631C19.9855 29.3475 20.1386 29.2749 20.563 29.2759C22.3777 29.2789 24.1834 29.2264 25.9159 28.6303C29.6173 27.3564 32.1007 24.0984 32.0444 20.5529C31.9724 16.0129 28.1584 12.4049 23.0993 12.0569C22.1863 11.9943 21.2779 11.9147 20.3626 11.9449C20.0925 11.954 20.0013 11.8773 20.0035 11.6353C20.0125 10.211 20.0125 8.78578 20.0024 7.36154C20.0013 7.12752 20.0947 7.06095 20.3469 7.01859C21.0313 6.90259 21.727 6.94294 22.4137 6.86628C23.0633 6.79365 23.4269 6.48702 23.4089 5.98672C23.3909 5.48743 22.9395 5.1344 22.2933 5.16062C21.6415 5.18685 20.9897 5.24131 20.3401 5.30789C20.0958 5.3331 20.0035 5.29175 20.0046 5.06076C20.0114 3.50237 20.0137 1.94297 20.0024 0.384575C20.0001 0.110217 20.169 0.111225 20.3908 0.0920606C22.9845 -0.131864 25.5444 0.0547399 28.0649 0.629681C31.5615 1.42855 34.6877 2.87901 37.4277 4.98915C37.5223 5.05874 37.627 5.12532 37.8206 5.26149Z" fill="#C52E24"/>
<path d="M14.4445 20.5812C14.4445 27.0497 14.4445 33.5172 14.4445 39.9857C14.4445 40.6957 14.3944 40.7242 13.1199 40.7242C9.13752 40.7242 5.15516 40.7252 1.1728 40.7242C0.101758 40.7242 0 40.6642 0 40.0467C0 27.0615 0 14.0753 0 1.09014C0 0.483408 0.105207 0.42539 1.19523 0.42539C5.2345 0.424406 9.27378 0.424406 13.313 0.42539C14.3255 0.42539 14.4427 0.494224 14.4427 1.07834C14.4445 7.57929 14.4445 14.0802 14.4445 20.5812Z" fill="black"/>
<path d="M22.4775 22.3292C21.4103 22.3312 20.5582 21.5657 20.5615 20.6084C20.5649 19.6542 21.425 18.8957 22.4956 18.9038C23.5357 18.9119 24.3767 19.6673 24.3834 20.5994C24.3913 21.5596 23.5436 22.3282 22.4775 22.3292Z" fill="#FF736B"/>
<path d="M59.036 27.1271V3.31911H75.932C89.66 3.31911 93.116 8.9831 93.116 14.5831V15.5431C93.116 20.9511 90.14 27.1271 75.964 27.1271H59.036ZM68.124 9.5591V20.8231H74.876C82.812 20.8231 83.676 17.3351 83.676 15.2551V15.0631C83.676 12.9831 82.812 9.5591 74.876 9.5591H68.124ZM95.286 3.31911H121.622V9.1431H104.246V12.1191H121.27V17.9111H104.246V21.1751H121.878V27.1271H95.286V3.31911ZM124.505 3.31911H150.329V9.1431H133.497V12.1191H149.977V17.9751H133.497V27.1271H124.505V3.31911ZM162.03 3.31911V27.1271H152.974V3.31911H162.03ZM181.451 27.5751H178.539C165.387 27.5751 164.011 22.2311 164.011 19.1271V18.8071H173.995C174.091 20.0871 174.763 22.1671 179.947 22.1671H180.235C185.323 22.1671 186.059 21.0791 186.059 19.9271V19.8951C186.059 18.6791 185.451 17.9111 180.458 17.7511L176.043 17.6231C166.827 17.3671 164.363 14.1351 164.363 10.4551V10.1671C164.363 6.2951 166.955 2.9031 178.059 2.9031H180.907C192.683 2.9031 195.371 6.6471 195.371 10.4231V10.6791H185.483C185.387 9.81511 184.875 8.1511 179.722 8.1511H179.403C174.635 8.1511 174.155 8.9831 174.155 9.9111V9.94311C174.155 10.9031 174.859 11.6711 179.339 11.7671L183.627 11.8631C192.683 12.1191 196.203 14.2311 196.203 19.0311V19.4791C196.203 23.4791 193.963 27.5751 181.451 27.5751ZM214.701 27.5751H211.789C198.637 27.5751 197.261 22.2311 197.261 19.1271V18.8071H207.245C207.341 20.0871 208.013 22.1671 213.197 22.1671H213.485C218.573 22.1671 219.309 21.0791 219.309 19.9271V19.8951C219.309 18.6791 218.701 17.9111 213.708 17.7511L209.293 17.6231C200.077 17.3671 197.613 14.1351 197.613 10.4551V10.1671C197.613 6.2951 200.205 2.9031 211.309 2.9031H214.157C225.933 2.9031 228.621 6.6471 228.621 10.4231V10.6791H218.733C218.637 9.81511 218.125 8.1511 212.972 8.1511H212.653C207.885 8.1511 207.405 8.9831 207.405 9.9111V9.94311C207.405 10.9031 208.109 11.6711 212.589 11.7671L216.877 11.8631C225.933 12.1191 229.453 14.2311 229.453 19.0311V19.4791C229.453 23.4791 227.213 27.5751 214.701 27.5751Z" fill="black"/>
<path d="M63.752 35.3551V35.0791L61.592 35.4631C61.028 35.5591 60.8 35.6911 60.8 36.0151V36.0271C60.8 36.3271 61.016 36.6871 61.82 36.6871C63.02 36.6871 63.752 36.0271 63.752 35.3551ZM63.812 37.2631C63.5 37.5751 62.672 38.2471 60.788 38.2471H60.656C58.496 38.2471 57.668 37.2271 57.668 36.1711V36.0271C57.668 34.9471 58.364 34.3111 60.284 34.1551L63.392 33.8791C63.668 33.8431 63.752 33.7471 63.752 33.5671C63.752 33.3271 63.62 33.0751 62.348 33.0751H62.3C60.92 33.0751 60.884 33.5311 60.848 33.7351H57.824V33.6631C57.824 32.7991 58.088 31.5031 61.964 31.5031H62.636C66.668 31.5031 66.944 32.7031 66.944 33.5791V35.9671C66.944 36.1471 66.992 36.2431 67.22 36.2431H67.568V38.1271H64.856C64.292 38.1271 63.908 37.8271 63.812 37.2631ZM67.8491 39.6511V36.1591H68.7971C69.1451 35.4631 69.3131 34.4071 69.3491 31.6711H78.1691V36.1591H79.4411V39.6511H76.4531V38.1271H70.8371V39.6511H67.8491ZM71.8451 36.1591H74.9531V33.5791H72.2171C72.1811 34.6951 72.0731 35.5231 71.8451 36.1591ZM85.2555 38.1271L83.0475 34.5991V38.1271H79.9635V31.6711H84.0675L86.1795 35.0551L88.3515 31.6711H92.3115V38.1271H89.0595V34.6231L86.8515 38.1271H85.2555ZM93.194 38.1271V31.6711H96.458V35.4631L99.962 31.6711H103.262V38.1271H100.01V34.3351L96.494 38.1271H93.194ZM107.415 38.1271H104.151V31.6711H107.415V33.9271H110.595V31.6711H113.859V38.1271H110.595V35.9071H107.415V38.1271Z" fill="black"/>
</svg>
