<?xml version="1.0" encoding="utf-8"?>
<!-- Generator: Adobe Illustrator 28.0.0, SVG Export Plug-In . SVG Version: 6.00 Build 0)  -->
<svg version="1.1" id="Layer_1" xmlns="http://www.w3.org/2000/svg" xmlns:xlink="http://www.w3.org/1999/xlink" x="0px" y="0px"
	 viewBox="0 0 418 418" style="enable-background:new 0 0 418 418;" xml:space="preserve">
<style type="text/css">
	.st0{fill:#7BBA77;}
	.st1{fill:#111212;}
	.st2{fill:#FFFFFF;stroke:#000000;stroke-miterlimit:10;}
</style>
<g>
	<path class="st0" d="M304.39,55.79c0-13.8-0.01-26.55,0.01-39.31c0-1.82-0.01-3.67,0.21-5.47c0.55-4.45,3.45-6.82,7.63-7.22
		c4.05-0.39,6.96,1.69,8.51,5.54c0.9,2.23,0.77,4.56,0.77,6.88c0,71.62-0.04,143.24,0.07,214.87c0.01,5.22-1.59,9.2-5.34,12.79
		c-7.21,6.89-14.11,14.09-21.21,21.09c-5.65,5.58-9.73,5.57-15.41,0.13c-8.11-7.76-11-7.72-18.93,0.21
		c-15.04,15.04-30.09,30.07-45.12,45.13c-6.62,6.63-6.59,9.97,0.05,16.73c6.74,6.86,6.75,10.4,0.07,17.18
		c-1.05,1.06-2.15,2.1-3.03,3.29c-2.66,3.6-2.49,7.94,0.49,10.87c3.28,3.23,7.04,3.58,10.81,1.02c1.9-1.29,3.46-3.08,5.17-4.65
		c4.91-4.52,9.09-4.58,14.01-0.16c0.86,0.78,1.65,1.64,2.49,2.45c5.66,5.46,9.76,5.48,15.38-0.12
		c15.89-15.83,31.75-31.7,47.59-47.59c5.68-5.7,5.64-9.59,0.05-15.35c-7.82-8.06-7.79-10.92,0.21-18.92
		c8.22-8.23,16.36-16.55,24.72-24.64c3.48-3.37,4.94-7.11,4.92-11.95c-0.11-35.73-0.06-71.46-0.06-107.18c0-3.17-0.1-6.32,2.4-8.84
		c4.54-4.59,11.55-2.91,14.47,3.68c7.22,16.31,12.32,33.31,14.89,50.94c5.84,40.08,1.25,79-16.28,115.63
		c-31.39,65.6-83.41,104.7-155.03,117.33c-16.39,2.89-33.03,3.05-49.67,1.5c-3.36-0.31-3.09-2.06-3.09-4.27
		c0.02-21.44,0.01-42.87,0.01-64.31c0-14.79,0.17-29.58-0.11-44.37c-0.08-4.12,1.28-4.84,5.05-4.83c16.12,0.03,32.16-0.49,47.55-6.4
		c32.88-12.63,54.94-44.93,54.44-80.08c-0.64-45.01-34.52-80.78-79.46-84.23c-8.11-0.62-16.18-1.41-24.31-1.11
		c-2.4,0.09-3.21-0.67-3.19-3.07c0.08-14.12,0.08-28.25-0.01-42.37c-0.01-2.32,0.82-2.98,3.06-3.4c6.08-1.15,12.26-0.75,18.36-1.51
		c5.77-0.72,9-3.76,8.84-8.72c-0.16-4.95-4.17-8.45-9.91-8.19c-5.79,0.26-11.58,0.8-17.35,1.46c-2.17,0.25-2.99-0.16-2.98-2.45
		c0.06-15.45,0.08-30.91-0.02-46.36c-0.02-2.72,1.48-2.71,3.45-2.9c23.04-2.22,45.78-0.37,68.17,5.33
		c31.06,7.92,58.83,22.3,83.17,43.22C301.74,53.78,302.67,54.44,304.39,55.79z"/>
	<path class="st1" d="M129.18,209.59c0,65.78,0,131.55,0,197.33c0,7.22-0.29,7.51-7.68,7.51c-23.09,0-46.18,0.01-69.27,0
		c-6.21,0-6.8-0.61-6.8-6.89c0-132.05,0-264.11,0-396.16c0-6.17,0.61-6.76,6.93-6.76c23.42-0.01,46.84-0.01,70.26,0
		c5.87,0,6.55,0.7,6.55,6.64C129.18,77.37,129.18,143.48,129.18,209.59z"/>
	<path class="st0" d="M168.11,225c-9.48,0.02-17.05-7.57-17.02-17.06c0.03-9.46,7.67-16.98,17.18-16.9
		c9.24,0.08,16.71,7.57,16.77,16.81C185.11,217.37,177.58,224.99,168.11,225z"/>
</g>
<path class="st2" d="M324.36,258.6"/>
</svg>
