<svg width="46" height="42" viewBox="0 0 46 42" fill="none" xmlns="http://www.w3.org/2000/svg">
<path d="M37.8206 5.26149C37.8206 3.86952 37.8195 2.58347 37.8217 1.29641C37.8217 1.11283 37.8206 0.92623 37.8454 0.744669C37.9073 0.295812 38.2338 0.0567572 38.7043 0.0164105C39.1602 -0.0229276 39.4878 0.186876 39.6623 0.575213C39.7636 0.800146 39.749 1.03517 39.749 1.26918C39.749 8.49326 39.7445 15.7173 39.7569 22.9424C39.758 23.469 39.5779 23.8704 39.1557 24.2325C38.3441 24.9275 37.5673 25.6537 36.768 26.3598C36.132 26.9226 35.6727 26.9216 35.0333 26.3729C34.1203 25.5902 33.795 25.5942 32.9023 26.3941C31.2091 27.9111 29.5149 29.4272 27.8229 30.9462C27.0777 31.615 27.0811 31.9519 27.8285 32.6337C28.5873 33.3257 28.5884 33.6827 27.8364 34.3666C27.7182 34.4735 27.5944 34.5784 27.4953 34.6985C27.1959 35.0616 27.215 35.4994 27.5505 35.7949C27.9197 36.1207 28.343 36.156 28.7674 35.8978C28.9813 35.7677 29.1569 35.5871 29.3494 35.4287C29.9022 34.9728 30.3727 34.9668 30.9266 35.4126C31.0234 35.4913 31.1123 35.578 31.2069 35.6597C31.8441 36.2105 32.3056 36.2125 32.9383 35.6476C34.7271 34.0509 36.5125 32.4501 38.2957 30.8474C38.9351 30.2724 38.9306 29.8801 38.3013 29.2991C37.421 28.4861 37.4244 28.1976 38.3249 27.3907C39.2503 26.5605 40.1667 25.7213 41.1078 24.9053C41.4995 24.5654 41.6639 24.1881 41.6616 23.6999C41.6493 20.096 41.6549 16.492 41.6549 12.889C41.6549 12.5693 41.6436 12.2516 41.9251 11.9974C42.4362 11.5344 43.2253 11.7039 43.554 12.3686C44.3668 14.0137 44.9409 15.7284 45.2302 17.5067C45.8877 21.5495 45.371 25.4752 43.3975 29.17C39.8638 35.7868 34.0077 39.7307 25.9452 41.0047C24.1001 41.2962 22.2269 41.3123 20.3536 41.156C19.9754 41.1247 20.0058 40.9482 20.0058 40.7253C20.008 38.5627 20.0069 36.4011 20.0069 34.2385C20.0069 32.7467 20.026 31.2549 19.9945 29.7631C19.9855 29.3475 20.1386 29.2749 20.563 29.2759C22.3777 29.2789 24.1834 29.2264 25.9159 28.6303C29.6173 27.3564 32.1007 24.0984 32.0444 20.5529C31.9724 16.0129 28.1584 12.4049 23.0993 12.0569C22.1863 11.9943 21.2779 11.9147 20.3626 11.9449C20.0925 11.954 20.0013 11.8773 20.0035 11.6353C20.0125 10.211 20.0125 8.78578 20.0024 7.36154C20.0013 7.12752 20.0947 7.06095 20.3469 7.01859C21.0313 6.90259 21.727 6.94294 22.4137 6.86628C23.0633 6.79365 23.4269 6.48702 23.4089 5.98672C23.3909 5.48743 22.9395 5.1344 22.2933 5.16062C21.6415 5.18685 20.9897 5.24131 20.3401 5.30789C20.0958 5.3331 20.0035 5.29175 20.0046 5.06076C20.0114 3.50237 20.0137 1.94297 20.0024 0.384575C20.0001 0.110217 20.169 0.111225 20.3908 0.0920606C22.9845 -0.131864 25.5444 0.0547399 28.0649 0.629681C31.5615 1.42855 34.6877 2.87901 37.4277 4.98915C37.5223 5.05874 37.627 5.12532 37.8206 5.26149Z" fill="#C52E24"/>
<path d="M14.4445 20.5812C14.4445 27.0497 14.4445 33.5172 14.4445 39.9857C14.4445 40.6957 14.3944 40.7242 13.1199 40.7242C9.13752 40.7242 5.15516 40.7252 1.1728 40.7242C0.101758 40.7242 0 40.6642 0 40.0467C0 27.0615 0 14.0753 0 1.09014C0 0.483408 0.105207 0.42539 1.19523 0.42539C5.2345 0.424406 9.27378 0.424406 13.313 0.42539C14.3255 0.42539 14.4427 0.494224 14.4427 1.07834C14.4445 7.57929 14.4445 14.0802 14.4445 20.5812Z" fill="black"/>
<path d="M22.4775 22.3292C21.4103 22.3312 20.5582 21.5657 20.5615 20.6084C20.5649 19.6542 21.425 18.8957 22.4956 18.9038C23.5357 18.9119 24.3767 19.6673 24.3834 20.5994C24.3913 21.5596 23.5436 22.3282 22.4775 22.3292Z" fill="#FF736B"/>
</svg>
