<svg width="46" height="43" viewBox="0 0 46 43" fill="none" xmlns="http://www.w3.org/2000/svg">
<path d="M37.8206 6.17473C37.8206 4.78276 37.8195 3.49671 37.8217 2.20965C37.8217 2.02607 37.8206 1.83947 37.8454 1.65791C37.9073 1.20905 38.2338 0.969996 38.7043 0.929649C39.1602 0.890311 39.4878 1.10011 39.6623 1.48845C39.7636 1.71338 39.749 1.9484 39.749 2.18242C39.749 9.4065 39.7445 16.6306 39.7569 23.8557C39.758 24.3822 39.5779 24.7837 39.1557 25.1458C38.3441 25.8407 37.5673 26.567 36.768 27.273C36.132 27.8359 35.6727 27.8349 35.0333 27.2862C34.1203 26.5034 33.795 26.5075 32.9023 27.3073C31.2091 28.8244 29.5149 30.3404 27.8229 31.8595C27.0777 32.5282 27.0811 32.8651 27.8285 33.547C28.5873 34.2389 28.5884 34.596 27.8364 35.2799C27.7182 35.3868 27.5944 35.4917 27.4953 35.6117C27.1959 35.9748 27.215 36.4126 27.5505 36.7081C27.9197 37.0339 28.343 37.0692 28.7674 36.811C28.9813 36.6809 29.1569 36.5003 29.3494 36.342C29.9022 35.8861 30.3727 35.88 30.9266 36.3258C31.0234 36.4045 31.1123 36.4913 31.2069 36.573C31.8441 37.1237 32.3056 37.1257 32.9383 36.5609C34.7271 34.9641 36.5125 33.3634 38.2957 31.7606C38.9351 31.1857 38.9306 30.7933 38.3013 30.2123C37.421 29.3993 37.4244 29.1108 38.3249 28.3039C39.2503 27.4738 40.1667 26.6346 41.1078 25.8185C41.4995 25.4786 41.6639 25.1014 41.6616 24.6132C41.6493 21.0092 41.6549 17.4052 41.6549 13.8023C41.6549 13.4825 41.6436 13.1648 41.9251 12.9106C42.4362 12.4476 43.2253 12.6171 43.554 13.2818C44.3668 14.9269 44.9409 16.6417 45.2302 18.42C45.8877 22.4627 45.371 26.3884 43.3975 30.0832C39.8638 36.7001 34.0077 40.644 25.9452 41.9179C24.1001 42.2094 22.2269 42.2255 20.3536 42.0692C19.9754 42.0379 20.0058 41.8614 20.0058 41.6385C20.008 39.4759 20.0069 37.3143 20.0069 35.1518C20.0069 33.6599 20.026 32.1681 19.9945 30.6763C19.9855 30.2607 20.1386 30.1881 20.563 30.1891C22.3777 30.1921 24.1834 30.1397 25.9159 29.5436C29.6173 28.2696 32.1007 25.0116 32.0444 21.4661C31.9724 16.9261 28.1584 13.3181 23.0993 12.9701C22.1863 12.9076 21.2779 12.8279 20.3626 12.8582C20.0925 12.8672 20.0013 12.7906 20.0035 12.5485C20.0125 11.1243 20.0125 9.69901 20.0024 8.27477C20.0013 8.04076 20.0947 7.97419 20.3469 7.93183C21.0313 7.81583 21.727 7.85618 22.4137 7.77952C23.0633 7.70689 23.4269 7.40026 23.4089 6.89996C23.3909 6.40067 22.9395 6.04763 22.2933 6.07386C21.6415 6.10008 20.9897 6.15455 20.3401 6.22112C20.0958 6.24634 20.0035 6.20499 20.0046 5.974C20.0114 4.41561 20.0137 2.85621 20.0024 1.29781C20.0001 1.02346 20.169 1.02446 20.3908 1.0053C22.9845 0.781375 25.5444 0.967978 28.0649 1.54292C31.5615 2.34178 34.6877 3.79225 37.4277 5.90239C37.5223 5.97198 37.627 6.03856 37.8206 6.17473Z" fill="#FF736B"/>
<path d="M14.4445 21.4944C14.4445 27.9629 14.4445 34.4305 14.4445 40.899C14.4445 41.6089 14.3944 41.6375 13.1199 41.6375C9.13752 41.6375 5.15516 41.6384 1.1728 41.6375C0.101758 41.6375 0 41.5775 0 40.9599C0 27.9747 0 14.9886 0 2.00338C0 1.39665 0.105207 1.33863 1.19523 1.33863C5.2345 1.33764 9.27378 1.33764 13.313 1.33863C14.3255 1.33863 14.4427 1.40746 14.4427 1.99158C14.4445 8.49253 14.4445 14.9935 14.4445 21.4944Z" fill="white"/>
<path d="M22.4775 23.2425C21.4103 23.2445 20.5582 22.4789 20.5615 21.5217C20.5649 20.5675 21.425 19.809 22.4956 19.817C23.5357 19.8251 24.3767 20.5806 24.3834 21.5126C24.3913 22.4728 23.5436 23.2414 22.4775 23.2425Z" fill="#FF736B"/>
</svg>
